<svg version="1.1" xmlns="http://www.w3.org/2000/svg" style="display: block;" viewBox="0 0 2048 2048" width="1024" height="1024" preserveAspectRatio="none">
<path transform="translate(0,0)" fill="rgb(18,73,125)" d="M 825.091 733.056 C 857.074 732.993 889.685 733.805 921.433 733.416 C 931.836 750.185 943.802 774.254 953.555 792.054 C 976.48 834.356 999.868 876.406 1023.71 918.196 C 1034.38 902.307 1049.22 872.302 1058.79 854.777 L 1125.36 733.219 C 1131.54 733.548 1137.59 733.554 1143.78 733.395 C 1169.56 732.732 1195.22 733.719 1221.01 733.35 C 1220.3 797.144 1220.1 860.942 1220.42 924.739 C 1220.35 962.527 1218.99 1007.2 1221.06 1044.7 C 1196.27 1043.45 1162.3 1044.2 1137.04 1044.58 C 1138.3 1017.35 1137.41 983.95 1137.37 956.25 C 1137.51 920.067 1136.28 883.218 1138.08 847.182 C 1127.73 864.323 1115.68 889.879 1105.98 908.418 L 1050.33 1012.36 C 1032.45 1012.21 1014.56 1012.34 996.685 1012.77 C 984.959 992.522 973.896 970.58 962.821 949.835 L 907.613 846.128 C 908.716 867.745 908.143 893.784 908.213 915.8 L 908.724 1045.02 C 897.254 1044.06 885.95 1044.75 874.428 1044.89 L 825.077 1045.04 C 824.907 1030.82 824.858 1016.46 824.97 1002.24 C 825.676 912.617 823.766 822.642 825.091 733.056 z"/>
<path transform="translate(0,0)" fill="rgb(18,73,125)" d="M 446.119 732.339 C 501.319 835.291 557.108 937.926 613.483 1040.24 C 610.107 1078.17 590.942 1121.14 561.58 1145.97 L 560.841 1146.58 C 525.507 1146.32 484.724 1145.51 449.781 1146.57 C 448.232 1124.42 449.193 1092 449.237 1069.08 C 478.539 1068.94 508.218 1068.56 537.488 1068.82 C 516.807 1031.23 496.351 993.523 476.121 955.692 C 466.743 938.299 454.916 918.406 446.598 900.796 C 420.747 943.534 392.656 999.609 368.272 1044.46 L 221.606 1314.86 L 129.992 1315 C 161.204 1254.95 195.896 1193.16 228.475 1133.76 L 340.489 928.318 L 416.197 787.901 C 424.484 772.639 437.652 745.765 446.119 732.339 z"/>
<path transform="translate(0,0)" fill="rgb(18,73,125)" d="M 1325.55 732.426 C 1369.3 729.938 1416.45 733.377 1460.5 732.086 C 1484.49 732.799 1508.73 730.422 1532.38 735.433 C 1577.13 744.916 1578.92 775.798 1580.71 812.203 C 1558.25 814.779 1526.5 822.125 1502.86 825.985 C 1502.48 817.377 1505.03 800.604 1500.38 795.041 C 1496.57 793.857 1491.55 793.02 1487.49 793.018 C 1446 792.997 1404.75 791.752 1363.23 792.363 C 1337.01 793.725 1335.31 790.227 1335.85 816.434 C 1336.64 854.306 1330.78 851.639 1369 851.716 C 1397.97 852.006 1426.95 852.098 1455.92 851.993 C 1513 852.002 1584.94 844.831 1585.95 923.626 C 1586.92 999.481 1594.27 1042.52 1502.58 1045.88 L 1392.63 1045.97 C 1362.93 1046.07 1329.39 1048.24 1300.42 1042.28 C 1253.66 1032.66 1251.45 997.043 1250.45 958.688 C 1276.29 953.797 1302.18 949.163 1328.12 944.789 C 1328 952.502 1326.97 971.511 1330.26 977.044 C 1334.94 984.905 1368.4 982.767 1376.49 982.746 L 1437.78 982.597 C 1450.41 982.588 1495.46 985.04 1503.94 979.308 C 1508.08 972.127 1505.63 938.466 1505.79 928.28 C 1506 913.945 1475.61 918.209 1465.57 918.14 L 1376.1 918.213 C 1309.75 918.335 1253.86 921.169 1255.2 835.151 C 1256.17 773.458 1253.27 741.784 1325.55 732.426 z"/>
<path transform="translate(0,0)" fill="rgb(85,84,84)" d="M 562.476 757.475 C 578.194 763.944 602.741 779.562 618.112 788.876 C 613.12 802.662 607.989 819.491 603.691 833.636 C 616.048 842.795 629.16 856.304 639.723 867.56 C 653.041 861.739 666.716 856.768 680.663 852.676 C 689.057 865.462 707.003 893.904 712.306 907.628 C 700.346 916.636 689 926.431 678.344 936.949 C 684.82 951.065 688.681 968.12 692.357 983.347 C 707.635 987.494 721.939 989.097 736.715 992.907 C 737.349 1014.71 736.941 1032.89 735.797 1054.7 C 722.652 1058.08 705.13 1060.86 691.489 1063.38 C 690.602 1077.28 683.896 1097.2 678.917 1110.13 C 685.694 1117.47 703.218 1131.16 712.068 1139.37 C 705.857 1156.7 691.645 1177.3 682.767 1194.41 C 668.921 1189.21 653.896 1184.33 639.834 1179.5 C 630.159 1191.6 615.311 1205.09 603.467 1215.27 C 608.153 1229.46 613.205 1243.46 617.819 1257.73 C 603.684 1266.83 577.349 1284.2 562.584 1290.05 C 553.091 1279.27 543.102 1266.59 533.884 1255.4 C 518.255 1261.37 500.715 1265.92 484.369 1269.26 C 483.07 1283.09 479.947 1299.91 477.634 1313.85 C 457.98 1314.89 433.82 1314.89 414.291 1313.04 L 408.736 1283.75 L 406.255 1269.86 C 390.133 1266.16 374.284 1261.35 358.82 1255.47 C 349.934 1264.27 336.829 1280.12 329.646 1290.19 C 309.585 1280.16 294.251 1270.85 275.059 1258.96 C 279.071 1249.75 287.936 1234.47 292.926 1225.37 C 303.302 1206.36 313.791 1187.41 324.392 1168.52 C 345.324 1184.48 365.419 1195.77 390.697 1203.88 C 437.66 1218.89 488.687 1214.39 532.298 1191.39 C 655.613 1126.74 670.042 957.351 559.677 874.278 C 553.275 869.459 540.767 862.85 536.176 856.769 C 530.794 849.642 524.701 837.197 520.341 829.061 L 494.623 781.064 C 506.689 783.542 522.625 787.819 534.09 792.01 C 540.872 782.619 554.802 766.409 562.476 757.475 z"/>
<path transform="translate(0,0)" fill="rgb(85,84,84)" d="M 896.512 1085.27 C 937.112 1081.59 985.709 1097.61 973.734 1151.1 C 969.336 1170.75 948.319 1184.19 931.647 1193.55 C 944.797 1205.86 957.768 1218.35 970.557 1231.03 C 976.055 1219.32 980.055 1207.79 983.806 1195.45 C 996.117 1197.89 1013.62 1203.96 1026.04 1207.91 C 1018.91 1228.82 1014.41 1241.17 1003.13 1260.48 C 1010.01 1268.08 1022.65 1279.25 1030.51 1286.57 C 1020.92 1296.93 1011.19 1307.15 1001.3 1317.22 C 992.606 1310.21 982.463 1300.91 973.838 1293.46 C 969.914 1296.42 965.83 1299.17 961.604 1301.69 C 938.207 1315.4 916.129 1318.33 889.662 1316.59 C 803.056 1310.91 782.672 1230.86 861.706 1188.14 C 850.916 1177.2 841.743 1164.5 839.048 1149.05 C 836.539 1135.25 839.795 1121.02 848.056 1109.68 C 859.856 1093.75 877.872 1088.11 896.512 1085.27 z M 916.935 1276.76 C 929.642 1273.68 932.699 1271.58 944.091 1264.72 C 927.505 1248.76 906.977 1228.7 889.811 1213.8 C 878.681 1220.57 867.287 1229.09 863.925 1242.53 C 862.278 1249.09 863.464 1256.05 867.192 1261.7 C 878.007 1278.37 899.401 1278.94 916.935 1276.76 z M 903.7 1167.31 L 912.642 1162.58 C 923.164 1155.07 939.795 1141.92 929.135 1126.43 C 924.512 1119.72 911.017 1118.61 903.411 1119.19 C 872.654 1131.08 886.688 1150.85 903.7 1167.31 z"/>
<path transform="translate(0,0)" fill="rgb(18,73,125)" d="M 328.514 757.867 C 334.091 763.193 351.738 784.749 357.18 791.299 C 369.268 787.499 384.883 783.128 397.272 781.234 C 390.866 794.165 361.348 851.092 352.962 859.077 C 347.999 863.802 341.161 867.267 335.563 871.273 C 323.051 880.046 311.709 890.379 301.812 902.022 C 269.366 939.973 253.442 989.321 257.584 1039.08 C 236.946 1079.06 212.712 1121.76 191.087 1161.73 C 185.96 1154.68 182.911 1148.25 179.366 1140.37 C 182.228 1137.31 185.689 1134.11 188.732 1131.16 C 196.8 1124.07 204.817 1117.12 212.58 1109.69 C 206.408 1094.07 202.635 1079.87 199.236 1063.48 C 186.818 1061.61 168.351 1057.09 155.6 1054.39 C 154.33 1034.7 154.711 1012.94 155.13 993.212 C 168.893 989.63 184.847 986.647 198.915 983.716 C 202.518 969.924 206.853 949.911 212.761 937.223 C 202.74 926.596 190.516 916.246 179.205 906.953 C 185.834 893.136 201.618 863.892 211.004 851.953 C 224.214 856.312 239.367 862.599 252.27 867.887 C 263.675 855.678 274.801 841.616 288.081 831.707 C 283.119 817.491 277.872 803.437 273.532 789.017 C 291.485 777.709 309.83 767.913 328.514 757.867 z"/>
<path transform="translate(0,0)" fill="rgb(85,84,84)" d="M 1189.18 1088.45 C 1206.35 1088.32 1226.56 1087.86 1243.47 1088.82 C 1252.67 1105.61 1262.82 1131.78 1271.33 1149.96 L 1347.8 1313.17 C 1328.89 1313.21 1309.97 1313.14 1291.06 1312.96 C 1284.33 1300.2 1275.08 1278.55 1270.21 1265.03 C 1261.05 1265 1251.9 1264.91 1242.75 1264.75 C 1216.06 1264.27 1188.9 1265.09 1162 1264.84 C 1155 1279.74 1148.04 1297.68 1141.67 1313.06 C 1124.62 1313.81 1104.2 1313.18 1086.93 1313.03 C 1097.05 1289.91 1183.97 1093.18 1189.18 1088.45 z M 1179.76 1224.6 L 1219.25 1224.86 L 1252.24 1224.82 L 1227.89 1168.22 C 1225.48 1162.67 1217.94 1144.75 1214.97 1140.5 L 1192.36 1193.53 C 1188.8 1201.9 1182.35 1216.19 1179.76 1224.6 z"/>
<path transform="translate(0,0)" fill="rgb(85,84,84)" d="M 1635.14 1137.55 C 1657.45 1136.81 1686.37 1150.06 1701.65 1166.21 C 1717.69 1183.49 1726.22 1206.44 1725.34 1230 C 1723.57 1287.34 1678.22 1319 1623.6 1316.66 C 1543.55 1313.2 1503.37 1229.56 1556.74 1166.54 C 1576.13 1143.66 1606.1 1138.11 1635.14 1137.55 z M 1633.52 1275.31 C 1638.76 1274.24 1643.26 1273.38 1648.27 1271.19 C 1681.2 1256.75 1682.94 1203.95 1652.51 1185.93 C 1643.19 1180.41 1635.71 1178.95 1624.86 1179.28 C 1610.72 1182.02 1599.89 1185.84 1591.54 1198.72 C 1576.99 1221.18 1582.52 1255.42 1606.28 1269.34 C 1614.52 1274.1 1624.04 1276.19 1633.52 1275.31 z"/>
<path transform="translate(0,0)" fill="rgb(85,84,84)" d="M 1430.59 1138.4 C 1459.79 1135.83 1486.03 1141.07 1512.24 1154.16 C 1506.24 1164.07 1499.53 1178.56 1494.66 1189.09 C 1482.68 1183.72 1472.36 1179.25 1458.38 1176.96 C 1447.17 1175.13 1412.78 1174.4 1410.95 1190.68 C 1409.41 1204.44 1431.62 1206.43 1441.7 1208.19 C 1462.84 1211.91 1489.36 1214.54 1505.94 1229.98 C 1523.76 1246.6 1520 1280.22 1503.12 1296.11 C 1485.24 1313.42 1460.62 1317.1 1436.75 1317.02 C 1409.87 1317.13 1380.81 1311.54 1358.26 1296.23 C 1363.34 1283.76 1368.27 1274.06 1374.39 1262.13 C 1396.2 1270.15 1412.72 1278.92 1437.22 1279.02 C 1447.17 1279.06 1471.55 1276.63 1468.95 1261.78 C 1466.25 1246.4 1421.92 1246.62 1409.31 1242.2 C 1398.28 1238.33 1387.36 1236.88 1377.88 1228.65 C 1357.85 1213.92 1356.94 1181.71 1372.78 1163.27 C 1387.65 1145.97 1408.47 1140.67 1430.59 1138.4 z"/>
<path transform="translate(0,0)" fill="rgb(85,84,84)" d="M 1826.26 1138.46 C 1863.76 1134.94 1899.24 1145.9 1918.52 1180.39 C 1908.38 1186.51 1889.52 1197.36 1879.19 1202.25 C 1866.73 1185.29 1850.18 1175.06 1828.5 1180.22 C 1816.67 1183.08 1806.51 1190.6 1800.31 1201.06 C 1787.21 1222.76 1792.23 1255.58 1815.13 1268.81 C 1839.82 1283.08 1865.61 1275.39 1879.31 1250.89 L 1890.51 1256.83 C 1894.1 1259.83 1913.39 1269.34 1918.55 1272.26 C 1875.73 1355.67 1731.62 1316.14 1742.48 1219.52 C 1747.94 1171 1780.12 1145.46 1826.26 1138.46 z"/>
<path transform="translate(0,0)" fill="rgb(85,84,84)" d="M 699.945 1200.7 C 703.02 1202.83 759.019 1307.64 762.218 1315.24 L 674.75 1315.03 L 672.08 1314.83 C 663.754 1308.94 629.864 1236.7 625.035 1222.88 C 632.099 1215.63 639.202 1208.42 646.345 1201.25 C 659.587 1204.55 676.662 1210.81 690.922 1214.81 L 699.945 1200.7 z"/>
<path transform="translate(0,0)" fill="rgb(85,84,84)" d="M 376.909 1068.9 C 402.305 1069.65 423.941 1069.51 449.237 1069.08 C 449.193 1092 448.232 1124.42 449.781 1146.57 C 436.218 1145.82 419.142 1146.25 405.342 1146.26 C 382.185 1146.13 359.027 1146.26 335.873 1146.65 C 347.602 1128.21 366.434 1089.6 376.909 1068.9 z"/>
</svg>